<?xml version="1.0" encoding="UTF-8"?>
<svg width="49px" height="97px" viewBox="0 0 49 97" version="1.1" style="display: block; margin: 0 auto;" xmlns="http://www.w3.org/2000/svg" xmlns:xlink="http://www.w3.org/1999/xlink">
    <!-- Generator: Sketch 50.2 (55047) - http://www.bohemiancoding.com/sketch -->
    <title>mili</title>
    <desc>Created with Sketch.</desc>
    <defs></defs>
    <g id="Page-1" stroke="none" stroke-width="1" fill="none" fill-rule="evenodd">
        <g id="Artboard" transform="translate(-40.000000, -15.000000)" stroke="#333333" stroke-width="4">
            <g id="Group" transform="translate(42.000000, 18.000000)">
                <path d="M22.1413312,0.00572620843 C25.5803629,8.37383487 32.4004972,15.7767305 41.5418406,21.4845575 C43.7324035,28.5813671 45,36.9880413 45,46 C45,71.4050985 34.9264069,92 22.5,92 C10.0735931,92 0,71.4050985 0,46 C0,20.8397793 9.88033189,0.397472224 22.1413312,0.00572620843 Z" id="Combined-Shape"></path>
                <path d="M42.8190169,26.2181172 C44.2172631,32.2103917 45,38.9183152 45,46 C45,71.4050985 34.9264069,92 22.5,92 C10.0735931,92 0,71.4050985 0,46 C0,20.8397793 9.88033189,0.397472224 22.1413312,0.00572620843 C22.1524657,0.0328194703 22.1636356,0.0599026143 22.1748409,0.0869756155 C24.0495295,14.2843872 32.4846141,25.2626277 42.8190169,26.2181172 Z" id="Combined-Shape"></path>
            </g>
        </g>
    </g>
</svg>
