<?xml version="1.0" encoding="UTF-8"?>
<svg width="151px" height="64px" viewBox="0 0 151 64" version="1.1" xmlns="http://www.w3.org/2000/svg" xmlns:xlink="http://www.w3.org/1999/xlink">
    <!-- Generator: Sketch 50.2 (55047) - http://www.bohemiancoding.com/sketch -->
    <title>mili</title>
    <desc>Created with Sketch.</desc>
    <defs></defs>
    <g id="Page-1" stroke="none" stroke-width="1" fill="none" fill-rule="evenodd">
        <g id="Artboard">
            <g id="Group" transform="translate(20.000000, 10.000000)" stroke="#333333" stroke-width="2">
                <path d="M11.3166804,5.10702591e-15 C13.0744078,4.09335175 16.5602547,7.71455894 21.2324975,10.5066047 C22.3521174,13.9780857 23,18.0903018 23,22.4985995 C23,34.9257798 17.8512746,45 11.5,45 C5.14872538,45 0,34.9257798 0,22.4985995 C0,10.1912038 5.04994741,0.191626826 11.3166804,-4.94529331e-13 Z" id="Combined-Shape"></path>
                <path d="M21.8852753,12.8220763 C22.5999345,15.7532625 23,19.0345163 23,22.4985995 C23,34.9257798 17.8512746,45 11.5,45 C5.14872538,45 0,34.9257798 0,22.4985995 C0,10.1912038 5.04994741,0.191626826 11.3166804,-5.68467799e-13 C11.3223713,0.0132529638 11.3280804,0.0265009784 11.3338076,0.0397440316 C12.2919817,6.98456237 16.6032472,12.3546882 21.8852753,12.8220763 Z" id="Combined-Shape"></path>
            </g>
            <text id="MILI" font-family="Orbitron-Regular, Orbitron" font-size="36" font-weight="normal" fill="#333333">
                <tspan x="53" y="45">MILI</tspan>
            </text>
        </g>
    </g>
</svg>