<?xml version="1.0" encoding="UTF-8"?>
<svg width="794px" height="397px" viewBox="0 0 794 397" version="1.1" xmlns="http://www.w3.org/2000/svg" xmlns:xlink="http://www.w3.org/1999/xlink">
    <!-- Generator: Sketch 55.2 (78181) - https://sketchapp.com -->
    <title>Artboard</title>
    <desc>Created with Sketch.</desc>
    <g id="Artboard" stroke="none" stroke-width="1" fill="none" fill-rule="evenodd">
        <g id="Group-2" transform="translate(31.000000, 43.000000)" fill="#2E7BD6">
            <path d="M0,11.8 L0,106.2 C0,112.69 5.2875,118 11.75,118 L82.25,118 C88.7125,118 94,112.69 94,106.2 L94,35.4 L58.75,0 L11.75,0 C5.2875,0 0,5.31 0,11.8 Z M52.875,8.85 L85.1875,41.3 L52.875,41.3 L52.875,8.85 Z" id="file"></path>
            <text id="Template" font-family="LucidaGrande-Bold, Lucida Grande" font-size="16" font-weight="bold">
                <tspan x="9" y="145">Template</tspan>
            </text>
        </g>
        <g id="Group-2" transform="translate(689.000000, 125.000000)" fill="#2E7BD6">
            <path d="M0,11.8 L0,106.2 C0,112.69 5.2875,118 11.75,118 L82.25,118 C88.7125,118 94,112.69 94,106.2 L94,35.4 L58.75,0 L11.75,0 C5.2875,0 0,5.31 0,11.8 Z M52.875,8.85 L85.1875,41.3 L52.875,41.3 L52.875,8.85 Z" id="file"></path>
            <text id="project" font-family="LucidaGrande-Bold, Lucida Grande" font-size="16" font-weight="bold">
                <tspan x="18.6015625" y="145">project</tspan>
            </text>
        </g>
        <g id="Group" transform="translate(31.000000, 251.000000)" fill="#2E7BD6">
            <text id="Resource" font-family="LucidaGrande-Bold, Lucida Grande" font-size="16" font-weight="bold">
                <tspan x="9.82421875" y="102">Resource</tspan>
            </text>
            <path d="M33,72 L61,72 L61,0 L33,0 L33,72 L33,72 Z M0,72 L28,72 L28,0 L0,0 L0,72 L0,72 Z M66,0 L66,72 L94,72 L94,0 L66,0 L66,0 Z" id="Resource"></path>
        </g>
        <g id="Group-4" transform="translate(243.000000, 153.000000)" fill="#2E7BD6">
            <g id="Group-3">
                <text id="Handler[0]" font-family="LucidaGrande-Bold, Lucida Grande" font-size="16" font-weight="bold">
                    <tspan x="19.3671875" y="89">Handler[0]</tspan>
                </text>
                <path d="M83.2084884,30.9547739 C83.2084884,30.1105528 83.4839296,29.2663317 83.4839296,28.1407035 C83.4839296,27.0150754 83.4839296,26.1708543 83.2084884,25.3266332 L88.992752,20.5427136 C89.5436342,19.9798995 89.5436342,19.4170854 89.2681931,18.8542714 L83.7593707,9.00502513 C83.4839296,8.72361809 82.9330473,8.44221106 82.106724,8.72361809 L75.220696,11.5376884 C73.8434904,10.4120603 72.1908436,9.5678392 70.5381969,8.72361809 L69.4364324,1.40703518 C69.7118736,0.56281407 68.8855502,0 68.334668,0 L57.3170231,0 C56.7661409,0 55.9398175,0.56281407 55.9398175,1.12562814 L54.8380531,8.72361809 C53.1854063,9.28643216 51.8082007,10.4120603 50.155554,11.5376884 L43.5449671,8.72361809 C42.7186438,8.44221106 42.1677615,8.72361809 41.6168793,9.28643216 L36.1080569,19.1356784 C35.8326158,19.4170854 36.1080569,20.2613065 36.6589391,20.8241206 L42.4432027,25.3266332 C42.4432027,26.1708543 42.1677615,27.0150754 42.1677615,28.1407035 C42.1677615,29.2663317 42.1677615,30.1105528 42.4432027,30.9547739 L36.6589391,35.7386935 C36.1080569,36.3015075 36.1080569,36.8643216 36.383498,37.4271357 L41.8923204,47.2763819 C42.1677615,47.5577889 42.7186438,47.839196 43.5449671,47.5577889 L50.4309951,44.7437186 C51.8082007,45.8693467 53.4608475,46.7135678 55.1134942,47.5577889 L56.2152587,54.8743719 C56.2152587,55.4371859 56.7661409,56 57.5924643,56 L68.6101091,56 C69.1609913,56 69.9873147,55.4371859 69.9873147,54.8743719 L71.0890792,47.5577889 C72.7417259,46.7135678 74.3943726,45.8693467 75.7715782,44.7437186 L82.6576062,47.5577889 C83.2084884,47.839196 84.0348118,47.5577889 84.3102529,46.9949749 L89.8190753,37.1457286 C90.0945164,36.5829146 90.0945164,35.7386935 89.5436342,35.4572864 L83.2084884,30.9547739 L83.2084884,30.9547739 Z M63,38.7692308 C57.6,38.7692308 53.0526316,34.174359 53.0526316,28.7179487 C53.0526316,23.2615385 57.6,18.6666667 63,18.6666667 C68.4,18.6666667 72.9473684,23.2615385 72.9473684,28.7179487 C72.9473684,34.174359 68.4,38.7692308 63,38.7692308 L63,38.7692308 Z" id="Shape"></path>
            </g>
            <g id="Group-3" transform="translate(202.000000, 0.000000)">
                <text id="Handler[n]" font-family="LucidaGrande-Bold, Lucida Grande" font-size="16" font-weight="bold">
                    <tspan x="19.390625" y="89">Handler[n]</tspan>
                </text>
                <path d="M83.2084884,30.9547739 C83.2084884,30.1105528 83.4839296,29.2663317 83.4839296,28.1407035 C83.4839296,27.0150754 83.4839296,26.1708543 83.2084884,25.3266332 L88.992752,20.5427136 C89.5436342,19.9798995 89.5436342,19.4170854 89.2681931,18.8542714 L83.7593707,9.00502513 C83.4839296,8.72361809 82.9330473,8.44221106 82.106724,8.72361809 L75.220696,11.5376884 C73.8434904,10.4120603 72.1908436,9.5678392 70.5381969,8.72361809 L69.4364324,1.40703518 C69.7118736,0.56281407 68.8855502,0 68.334668,0 L57.3170231,0 C56.7661409,0 55.9398175,0.56281407 55.9398175,1.12562814 L54.8380531,8.72361809 C53.1854063,9.28643216 51.8082007,10.4120603 50.155554,11.5376884 L43.5449671,8.72361809 C42.7186438,8.44221106 42.1677615,8.72361809 41.6168793,9.28643216 L36.1080569,19.1356784 C35.8326158,19.4170854 36.1080569,20.2613065 36.6589391,20.8241206 L42.4432027,25.3266332 C42.4432027,26.1708543 42.1677615,27.0150754 42.1677615,28.1407035 C42.1677615,29.2663317 42.1677615,30.1105528 42.4432027,30.9547739 L36.6589391,35.7386935 C36.1080569,36.3015075 36.1080569,36.8643216 36.383498,37.4271357 L41.8923204,47.2763819 C42.1677615,47.5577889 42.7186438,47.839196 43.5449671,47.5577889 L50.4309951,44.7437186 C51.8082007,45.8693467 53.4608475,46.7135678 55.1134942,47.5577889 L56.2152587,54.8743719 C56.2152587,55.4371859 56.7661409,56 57.5924643,56 L68.6101091,56 C69.1609913,56 69.9873147,55.4371859 69.9873147,54.8743719 L71.0890792,47.5577889 C72.7417259,46.7135678 74.3943726,45.8693467 75.7715782,44.7437186 L82.6576062,47.5577889 C83.2084884,47.839196 84.0348118,47.5577889 84.3102529,46.9949749 L89.8190753,37.1457286 C90.0945164,36.5829146 90.0945164,35.7386935 89.5436342,35.4572864 L83.2084884,30.9547739 L83.2084884,30.9547739 Z M63,38.7692308 C57.6,38.7692308 53.0526316,34.174359 53.0526316,28.7179487 C53.0526316,23.2615385 57.6,18.6666667 63,18.6666667 C68.4,18.6666667 72.9473684,23.2615385 72.9473684,28.7179487 C72.9473684,34.174359 68.4,38.7692308 63,38.7692308 L63,38.7692308 Z" id="Shape"></path>
            </g>
            <path d="M150.5,25 C148.025,25 146,27.025 146,29.5 C146,31.975 148.025,34 150.5,34 C152.975,34 155,31.975 155,29.5 C155,27.025 152.975,25 150.5,25 L150.5,25 Z M177.5,25 C175.025,25 173,27.025 173,29.5 C173,31.975 175.025,34 177.5,34 C179.975,34 182,31.975 182,29.5 C182,27.025 179.975,25 177.5,25 L177.5,25 Z M164.5,25 C162.025,25 160,27.025 160,29.5 C160,31.975 162.025,34 164.5,34 C166.975,34 169,31.975 169,29.5 C169,27.025 166.975,25 164.5,25 L164.5,25 Z" id="Shape"></path>
        </g>
        <polygon id="Shape" fill="#2E7BD6" points="184 164 179.275 168.725 198.175 187.625 157 187.625 157 194.375 198.175 194.375 179.275 213.275 184 218 211 191"></polygon>
        <polygon id="Shape" fill="#2E7BD6" points="630 153 625.275 157.725 644.175 176.625 603 176.625 603 183.375 644.175 183.375 625.275 202.275 630 207 657 180"></polygon>
    </g>
</svg>