<?xml version="1.0" encoding="UTF-8"?>
<svg width="21px" height="41px" viewBox="0 0 21 41" version="1.1" xmlns="http://www.w3.org/2000/svg" xmlns:xlink="http://www.w3.org/1999/xlink">
    <!-- Generator: Sketch 55.2 (78181) - https://sketchapp.com -->
    <title>Combined-Shape</title>
    <desc>Created with Sketch.</desc>
    <g id="Page-1" stroke="none" stroke-width="1" fill="none" fill-rule="evenodd">
        <g id="Artboard" transform="translate(-34.000000, -15.000000)" stroke="#333333" stroke-width="2">
            <g id="mili" transform="translate(35.000000, 15.000000)">
                <g id="Group" transform="translate(0.000000, 2.000000)">
                    <path d="M9.34856207,0 C10.8005977,3.45660814 13.6802104,6.51451644 17.5398892,8.87224397 C18.4647926,11.8037168 19,15.2762549 19,18.9988174 C19,29.4928807 14.7467051,38 9.5,38 C4.25329488,38 0,29.4928807 0,18.9988174 C0,8.60590543 4.17169569,0.161818209 9.34856207,0 L9.34856207,0 Z" id="Combined-Shape"></path>
                    <path d="M18.0791405,10.8275311 C18.6695111,13.302755 19,16.0735915 19,18.9988174 C19,29.4928807 14.7467051,38 9.5,38 C4.25329488,38 0,29.4928807 0,18.9988174 C0,8.60590543 4.17169569,0.161818209 9.34856207,0 C9.35326325,0.0111913917 9.35797946,0.022378604 9.36271063,0.0335616267 C10.1542458,5.89807489 13.7157259,10.4328478 18.0791405,10.8275311 Z" id="Combined-Shape"></path>
                </g>
            </g>
        </g>
    </g>
</svg>