<svg id="Layer_1" enable-background="new 0 0 128 128" height="512" viewBox="0 0 128 128" width="512" xmlns="http://www.w3.org/2000/svg" xmlns:xlink="http://www.w3.org/1999/xlink"><linearGradient id="SVGID_1_" gradientTransform="matrix(1 0 0 -1 0 127.89)" gradientUnits="userSpaceOnUse" x1="104.444" x2="23.557" y1="35.609" y2="116.496"><stop offset="0" stop-color="#e74444"/><stop offset="1" stop-color="#f4dd83"/></linearGradient><path d="m76.8 44.1c.5.8.3 1.9-.4 2.4l-1.6 1.1c-.8.5-1.9.3-2.4-.5s-.3-1.9.5-2.4l1.6-1.1c.6-.5 1.7-.3 2.3.5zm18.5-40.4v18.3c0 3-.6 6-1.8 8.8 1-.1 1.8.7 1.8 1.7v9.6c0 3-.6 6-1.8 8.8 1-.1 1.8.7 1.8 1.6v9.7c0 3-.6 6-1.8 8.8 1-.1 1.9.7 1.8 1.7v9.6c0 7.2-3.5 13.9-9.4 17.9l-16.1 11.1v14.8c0 1-.8 1.8-1.7 1.8h-8c-1 0-1.7-.8-1.8-1.8v-14.8l-16.1-11.1c-.8-.5-1-1.6-.4-2.4.5-.8 1.6-1 2.4-.4l18.1 12.5v-15.9l-20.1-13.8-5.9-4.1v6.3c0 2.7.6 5.3 1.7 7.7.4.9 0 1.9-.8 2.3-.9.4-1.9 0-2.3-.8-1.3-2.9-2-6-2-9.2v-9.6c0-1 .8-1.8 1.8-1.7-1.2-2.8-1.8-5.7-1.8-8.8v-9.6c0-1 .8-1.8 1.8-1.7-1.2-2.8-1.8-5.7-1.8-8.8v-9.6c0-1 .8-1.8 1.8-1.7-1.2-2.8-1.8-5.7-1.8-8.8v-18.4c0-2.1 1.7-3.7 3.7-3.7h4c2.1 0 3.7 1.7 3.8 3.8v13.3l8.5 5.8c-1.4-5.5.9-11.3 5.6-14.6l4.5-3.2c.6-.4 1.4-.4 2 0l4.7 3.3c4.7 3.2 6.9 9 5.6 14.6l8.5-5.8v-13.5c0-2.1 1.7-3.7 3.8-3.7h4c2 0 3.6 1.7 3.7 3.7zm-11.5 33.4c4.9-3.4 7.9-9 7.9-15v-6.3l-26 17.9v15.9l1-.7c.8-.5 1.9-.3 2.4.5s.3 1.9-.4 2.4l-3 2.1v15.9c24.9-17.2 16.3-11.3 18.2-12.6 4.9-3.4 7.9-9 7.9-15v-6.3l-9.5 6.6c-.8.6-1.9.4-2.4-.4-.6-.8-.4-2 .5-2.5zm-21.5 52.7v-15.9c-2.8-1.9-23.7-16.2-26-17.9v6.3c0 6 3 11.6 7.9 15 23.8 16.5 16.1 11.2 18.1 12.5zm0-20.1v-15.9l-20.1-13.8-5.9-4.1v6.3c0 6 3 11.6 7.9 15 1.8 1.3-6.8-4.6 18.1 12.5zm0-20.1v-15.9l-26-17.9v6.3c0 6 3 11.6 7.9 15 23.8 16.4 16.1 11.2 18.1 12.5zm29.5 6.4c-2.7 1.8 9.6-6.6-26 17.9v15.9l18.1-12.5c4.9-3.4 7.9-9 7.9-15zm0-44.4v-7.9c0-.1-.1-.3-.3-.3h-4c-.1 0-.3.1-.3.3v10.9c.2 0 4.8-3.2 4.6-3zm-36 8.1c0 3.4 1.6 6.5 4.4 8.4l3.7 2.6 3.7-2.6c5.9-4.1 5.9-12.8 0-16.9l-3.6-2.5-3.7 2.6c-2.8 1.8-4.5 5-4.5 8.4zm-19.5-16v7.8l4.5 3.1v-10.9c0-.1-.1-.3-.3-.3h-4c-.1.1-.2.2-.2.3zm30 110.1-1.3.9c-.6.4-1.4.4-2 0l-1.3-.9v10.7h4.5zm25.5-37.7c-5.9 4.1-19.6 13.5-26 17.9v15.9c24.4-16.8 16.5-11.3 18.1-12.5 4.9-3.4 7.9-9 7.9-15z" fill="url(#SVGID_1_)"/></svg>